<svg width="20" height="20" viewBox="0 0 20 20" fill="none" xmlns="http://www.w3.org/2000/svg">
    <path d="M16.4946 4.20695L15.8877 3.60884C15.7161 3.4398 15.3994 3.46581 15.2015 3.69983L13.0899 5.76735C12.1398 5.36429 11.0974 5.16924 10.002 5.16924C6.74249 5.18219 3.9187 7.05467 2.5594 9.74655C2.4802 9.91559 2.4802 10.1236 2.5594 10.2666C3.19276 11.541 4.14294 12.5943 5.33059 13.3874L3.60191 15.1169C3.40396 15.3119 3.37756 15.624 3.50956 15.793L4.11654 16.3912C4.28808 16.5602 4.60478 16.5342 4.80272 16.3002L16.3889 4.88322C16.6396 4.68828 16.666 4.37623 16.4945 4.20717L16.4946 4.20695ZM10.7014 8.1339C10.4771 8.08187 10.2396 8.01689 10.0152 8.01689C8.89353 8.01689 7.99628 8.90115 7.99628 10.0064C7.99628 10.2274 8.04908 10.4615 8.11503 10.6825L7.23079 11.5408C6.9669 11.0857 6.82175 10.5785 6.82175 10.0064C6.82175 8.27695 8.23376 6.88556 9.98883 6.88556C10.5695 6.88556 11.0841 7.02859 11.546 7.28863L10.7014 8.1339Z" fill="#666666" fill-opacity="0.8"/>
    <path d="M17.4448 9.74651C16.9829 8.83623 16.3759 8.01707 15.6238 7.35387L13.1692 9.74651V10.0065C13.1692 11.736 11.7572 13.1274 10.0022 13.1274H9.73828L8.18115 14.6618C8.76183 14.7788 9.36881 14.8568 9.96263 14.8568C13.2222 14.8568 16.046 12.9843 17.4053 10.2795C17.524 10.0974 17.524 9.91543 17.4448 9.74637L17.4448 9.74651Z" fill="#666666" fill-opacity="0.8"/>
</svg>
