<svg width="20" height="20" viewBox="0 0 20 20" fill="none" xmlns="http://www.w3.org/2000/svg">
    <path d="M12.3438 10C12.3438 11.2552 11.2944 12.2727 10 12.2727C8.70558 12.2727 7.65625 11.2552 7.65625 10C7.65625 8.74481 8.70558 7.72727 10 7.72727C11.2944 7.72727 12.3438 8.74481 12.3438 10Z" fill="#858585"/>
    <path fill-rule="evenodd" clip-rule="evenodd" d="M2.5 10C2.5 10 5.3125 5 10 5C14.6875 5 17.5 10 17.5 10C17.5 10 14.6875 15 10 15C5.3125 15 2.5 10 2.5 10ZM10 13.1818C11.8122 13.1818 13.2813 11.7573 13.2813 10C13.2813 8.24273 11.8122 6.81818 10 6.81818C8.18782 6.81818 6.71875 8.24273 6.71875 10C6.71875 11.7573 8.18782 13.1818 10 13.1818Z" fill="#858585"/>
</svg>
