<svg width="55" height="50" viewBox="0 0 55 50" fill="none" xmlns="http://www.w3.org/2000/svg">
<path fill-rule="evenodd" clip-rule="evenodd" d="M12.5 46.9231C14.2259 46.9231 15.625 45.5455 15.625 43.8462C15.625 42.1468 14.2259 40.7692 12.5 40.7692C10.7741 40.7692 9.37501 42.1468 9.37501 43.8462C9.37501 45.5455 10.7741 46.9231 12.5 46.9231ZM12.5 50C15.9518 50 18.75 47.2448 18.75 43.8462C18.75 40.4475 15.9518 37.6923 12.5 37.6923C9.04823 37.6923 6.25001 40.4475 6.25001 43.8462C6.25001 47.2448 9.04823 50 12.5 50Z" fill="black"/>
<path fill-rule="evenodd" clip-rule="evenodd" d="M37.5 46.9231C39.2259 46.9231 40.625 45.5455 40.625 43.8462C40.625 42.1468 39.2259 40.7692 37.5 40.7692C35.7741 40.7692 34.375 42.1468 34.375 43.8462C34.375 45.5455 35.7741 46.9231 37.5 46.9231ZM37.5 50C40.9518 50 43.75 47.2448 43.75 43.8462C43.75 40.4475 40.9518 37.6923 37.5 37.6923C34.0482 37.6923 31.25 40.4475 31.25 43.8462C31.25 47.2448 34.0482 50 37.5 50Z" fill="black"/>
<path fill-rule="evenodd" clip-rule="evenodd" d="M0.360155 10.5559C0.657005 10.2038 1.09769 10 1.56251 10H48.4375C48.9023 10 49.343 10.2038 49.6398 10.5559C49.9367 10.9081 50.0589 11.3722 49.9732 11.822L45.2857 36.4374C45.1472 37.165 44.5019 37.6923 43.75 37.6923H6.25001C5.49811 37.6923 4.85284 37.165 4.71427 36.4374L0.0267751 11.822C-0.0588857 11.3722 0.0633045 10.9081 0.360155 10.5559ZM3.44521 13.0769L7.54677 34.6154H42.4532L46.5548 13.0769H3.44521Z" fill="black"/>
<circle cx="42" cy="13" r="13" fill="#F48342"/>
</svg>
