<svg width="51" height="35" viewBox="0 0 51 35" fill="none" xmlns="http://www.w3.org/2000/svg">
    <path fill-rule="evenodd" clip-rule="evenodd" d="M0.250244 32.5002C0.250244 31.1195 1.18298 30.0002 2.33358 30.0002H48.1669C49.3175 30.0002 50.2502 31.1195 50.2502 32.5002C50.2502 33.881 49.3175 35.0002 48.1669 35.0002H2.33358C1.18298 35.0002 0.250244 33.881 0.250244 32.5002Z" fill="black"/>
    <path fill-rule="evenodd" clip-rule="evenodd" d="M0.250244 17.5002C0.250244 16.1195 1.18298 15.0002 2.33358 15.0002H48.1669C49.3175 15.0002 50.2502 16.1195 50.2502 17.5002C50.2502 18.881 49.3175 20.0002 48.1669 20.0002H2.33358C1.18298 20.0002 0.250244 18.881 0.250244 17.5002Z" fill="black"/>
    <path fill-rule="evenodd" clip-rule="evenodd" d="M0.250244 2.50024C0.250244 1.11953 1.18298 0.000244141 2.33358 0.000244141H48.1669C49.3175 0.000244141 50.2502 1.11953 50.2502 2.50024C50.2502 3.88096 49.3175 5.00024 48.1669 5.00024H2.33358C1.18298 5.00024 0.250244 3.88096 0.250244 2.50024Z" fill="black"/>
</svg>
