<svg width="16" height="15" viewBox="0 0 16 15" fill="none" xmlns="http://www.w3.org/2000/svg">
    <path fill-rule="evenodd" clip-rule="evenodd" d="M2.125 9.375C1.60723 9.375 1.1875 9.79473 1.1875 10.3125V13.125C1.1875 13.6428 1.60723 14.0625 2.125 14.0625H4.9375C5.45527 14.0625 5.875 13.6428 5.875 13.125V10.3125C5.875 9.79473 5.45527 9.375 4.9375 9.375H2.125ZM10.5625 0.9375C10.0447 0.9375 9.625 1.35723 9.625 1.875V4.6875C9.625 5.20527 10.0447 5.625 10.5625 5.625H13.375C13.8928 5.625 14.3125 5.20527 14.3125 4.6875V1.875C14.3125 1.35723 13.8928 0.9375 13.375 0.9375H10.5625ZM10.5625 9.375C10.0447 9.375 9.625 9.79473 9.625 10.3125V13.125C9.625 13.6428 10.0447 14.0625 10.5625 14.0625H13.375C13.8928 14.0625 14.3125 13.6428 14.3125 13.125V10.3125C14.3125 9.79473 13.8928 9.375 13.375 9.375H10.5625ZM10.5625 0C9.52697 0 8.6875 0.839466 8.6875 1.875V4.6875C8.6875 5.72303 9.52697 6.5625 10.5625 6.5625H13.375C14.4105 6.5625 15.25 5.72303 15.25 4.6875V1.875C15.25 0.839466 14.4105 0 13.375 0H10.5625ZM2.125 8.4375C1.08947 8.4375 0.25 9.27697 0.25 10.3125V13.125C0.25 14.1605 1.08947 15 2.125 15H4.9375C5.97303 15 6.8125 14.1605 6.8125 13.125V10.3125C6.8125 9.27697 5.97303 8.4375 4.9375 8.4375H2.125ZM8.6875 10.3125C8.6875 9.27697 9.52697 8.4375 10.5625 8.4375H13.375C14.4105 8.4375 15.25 9.27697 15.25 10.3125V13.125C15.25 14.1605 14.4105 15 13.375 15H10.5625C9.52697 15 8.6875 14.1605 8.6875 13.125V10.3125Z" fill="#F48342"/>
    <path fill-rule="evenodd" clip-rule="evenodd" d="M0.25 1.875C0.25 0.839466 1.08947 0 2.125 0H4.9375C5.97303 0 6.8125 0.839466 6.8125 1.875V4.6875C6.8125 5.72303 5.97303 6.5625 4.9375 6.5625H2.125C1.08947 6.5625 0.25 5.72303 0.25 4.6875V1.875ZM5.26896 2.67521L3.39396 4.55021C3.2109 4.73326 2.9141 4.73326 2.73104 4.55021L1.79354 3.61271C1.61049 3.42965 1.61049 3.13285 1.79354 2.94979C1.9766 2.76674 2.2734 2.76674 2.45646 2.94979L3.0625 3.55584L4.60604 2.01229C4.7891 1.82924 5.0859 1.82924 5.26896 2.01229C5.45201 2.19535 5.45201 2.49215 5.26896 2.67521Z" fill="#F48342"/>
</svg>
