<svg width="80" height="70" viewBox="0 0 80 70" fill="none" xmlns="http://www.w3.org/2000/svg">
<path d="M27.8333 13.5L22 21.7069V50.431C22 51.5193 22.4097 52.5631 23.139 53.3326C23.8683 54.1022 24.8575 54.5345 25.8889 54.5345H53.1111C54.1425 54.5345 55.1317 54.1022 55.861 53.3326C56.5903 52.5631 57 51.5193 57 50.431V21.7069L51.1667 13.5H27.8333Z" stroke="#3D3D56" stroke-width="2" stroke-linecap="round" stroke-linejoin="round"/>
<path d="M23 22L56 22" stroke="#3D3D56" stroke-width="2" stroke-linecap="round" stroke-linejoin="round"/>
<path d="M47.3449 30.3965C47.3449 32.317 46.5184 34.1589 45.0472 35.5169C43.576 36.8749 41.5807 37.6379 39.5001 37.6379C37.4195 37.6379 35.4242 36.8749 33.953 35.5169C32.4818 34.1589 31.6553 32.317 31.6553 30.3965" stroke="#F48342" stroke-width="2.41379" stroke-linecap="round" stroke-linejoin="round"/>
</svg>
