<svg width="80" height="70" viewBox="0 0 80 70" fill="none" xmlns="http://www.w3.org/2000/svg">
<path d="M38.7604 12.2643C38.7604 10.0364 36.8743 8.22363 34.5559 8.22363C32.2383 8.22363 30.3528 10.0362 30.3528 12.2643C30.3528 14.4924 32.2383 16.305 34.5559 16.305C36.8743 16.305 38.7604 14.4924 38.7604 12.2643ZM31.9154 12.2643C31.9154 10.8644 33.1 9.72525 34.5561 9.72525C36.0128 9.72525 37.1981 10.8642 37.1981 12.2643C37.1981 13.6644 36.0129 14.8034 34.5561 14.8034C33.1 14.8034 31.9154 13.6644 31.9154 12.2643Z" fill="#F48342"/>
<path d="M35.1408 23.9394C35.8635 23.1548 42.2024 16.1645 42.2024 12.3472C42.2024 8.29604 38.7721 5 34.5558 5C30.3403 5 26.9106 8.29589 26.9106 12.3472C26.9106 16.1643 33.2481 23.1548 33.9708 23.9392L34.5556 24.5743L35.1408 23.9394ZM28.4733 12.3474C28.4733 9.12418 31.2019 6.50176 34.556 6.50176C37.9106 6.50176 40.64 9.12403 40.64 12.3474C40.64 14.8453 36.6758 19.8772 34.556 22.2923C32.4364 19.8777 28.4733 14.8471 28.4733 12.3474Z" fill="#F48342"/>
<path d="M14.6704 47.3589H7.14014V48.8605H14.6704V47.3589Z" fill="#F48342"/>
<path d="M5.31972 47.3589H2.85815V48.8605H5.31972V47.3589Z" fill="#F48342"/>
<path d="M14.6702 51.4609H10.1252V52.9626H14.6702V51.4609Z" fill="#F48342"/>
<path d="M30.1525 36.1582H26.1489V37.6598H30.1525V36.1582Z" fill="#3D3D56"/>
<path d="M6.68994 20.9351V35.2316H8.4015H12.8279L21.079 41.1973C21.0543 41.4059 21.034 41.6173 21.0193 41.8319C18.6628 43.8001 17.2049 46.5015 17.2049 49.4789V52.6294H20.0407C20.2735 55.0796 21.6334 57.22 23.6168 58.5686H12.6723V60.0702H41.7348V58.5686H33.4351C34.4262 57.8948 35.2614 57.0237 35.8785 56.0143H41.1268L43.6303 54.7726C44.3204 55.1335 45.1109 55.3388 45.9499 55.3388H57.2606L57.6298 55.3383L57.8642 55.0647C57.8776 55.049 58.1407 54.7471 58.6271 54.2665C59.244 56.0559 60.489 57.5647 62.0937 58.5686H48.9223V60.0702H77.1418V58.5686H74.2549H71.3679C73.7004 57.1057 75.2464 54.5773 75.2464 51.707C75.2464 49.8885 74.6095 48.1298 73.4684 46.7049C74.2842 46.6045 75.1234 46.5492 75.9846 46.5492C76.6395 46.5492 76.8564 46.1202 76.9071 45.9887C77.1678 45.3149 76.549 44.8021 75.6124 44.0259C75.4017 43.8511 75.2025 43.6862 75.0871 43.5748C73.2067 41.7661 70.839 40.5995 68.2704 40.181L61.8676 25.1021H63.7976V24.3982H63.9579C65.3324 24.3982 66.4506 23.3236 66.4506 22.0028V21.9513C66.4506 20.6305 65.3324 19.5558 63.9579 19.5558H63.7976V18.8518H58.3932C56.5984 18.8518 55.1381 20.2552 55.1381 21.9801V23.4337C55.1381 23.49 55.1412 23.5454 55.1468 23.6002H54.1948L50.8714 20.4061H46.9679V21.9077H50.2242L53.5476 25.1018H56.6824L54.9482 30.1525L57.2899 43.4835C56.1387 44.5639 55.1974 45.8546 54.5373 47.2954H45.6678C45.247 46.4665 44.9063 45.6033 44.6496 44.71C43.497 40.6961 44.3774 37.1509 45.1267 35.1748C45.9418 34.9775 46.5476 34.269 46.5476 33.4254C46.5476 30.9665 44.466 28.9661 41.9074 28.9661H25.8249C24.0276 28.9661 22.5653 30.3713 22.5653 32.0987C22.5653 32.6965 22.7435 33.2539 23.0473 33.7298H21.566V20.9351H6.68994ZM8.25244 33.7299V22.4368H20.0035V33.7299H8.4015H8.25244ZM18.7674 49.4787C18.7674 44.3008 23.9929 40.0881 30.4159 40.0881H33.3676C37.6174 40.0881 41.0749 42.8582 41.0749 46.2633V49.8957V50.6465V51.1276H37.014C36.6184 46.9614 32.9632 43.6868 28.5273 43.6868C24.0906 43.6868 20.4348 46.9614 20.0392 51.1276H18.7676L18.7674 49.4787ZM21.611 51.1276C22.0007 47.791 24.9531 45.1885 28.5271 45.1885C32.1006 45.1885 35.0523 47.791 35.4418 51.1276H21.611ZM30.8309 52.6292C30.5043 53.5518 29.596 54.2181 28.5271 54.2181C27.4576 54.2181 26.5489 53.5517 26.2221 52.6292H30.8309ZM28.5256 58.5684C24.9521 58.5684 22.0004 55.9658 21.6109 52.6292H24.6057C24.9703 54.3891 26.5896 55.7197 28.5271 55.7197C30.4639 55.7197 32.0828 54.3891 32.4471 52.6292H35.4418C35.3646 53.2907 35.1873 53.9233 34.9235 54.5126H32.1543V56.0142H33.991C32.7153 57.5681 30.7403 58.5684 28.5256 58.5684ZM40.7476 54.5126H36.5945C36.8071 53.9125 36.9498 53.2823 37.0118 52.6292H41.5328C41.7312 53.0366 41.9884 53.4119 42.2938 53.7457L40.7476 54.5126ZM73.684 51.7068C73.684 55.3949 70.5612 58.3953 66.7228 58.3953C63.4346 58.3953 60.5774 56.1369 59.91 53.0809C60.6843 52.4091 61.6648 51.6308 62.8264 50.8501C62.7607 51.1258 62.7251 51.412 62.7251 51.7065C62.7251 53.8248 64.5184 55.5484 66.7228 55.5484C68.9271 55.5484 70.7204 53.8248 70.7204 51.7065C70.7204 50.0402 69.6107 48.6187 68.0645 48.0878C69.1942 47.647 70.3996 47.2725 71.6739 47.0039C72.9556 48.254 73.684 49.9471 73.684 51.7068ZM64.972 50.0837L66.0287 52.0508L67.417 51.362L66.3604 49.3949C66.479 49.3778 66.5993 49.3661 66.7228 49.3661C68.0656 49.3661 69.1579 50.416 69.1579 51.7065C69.1579 52.997 68.0656 54.0468 66.7228 54.0468C65.3799 54.0468 64.2876 52.997 64.2876 51.7065C64.2876 51.0764 64.5492 50.5049 64.972 50.0837ZM63.9581 21.0574C64.471 21.0574 64.8882 21.4583 64.8882 21.9513V22.0028C64.8882 22.4956 64.471 22.8966 63.9581 22.8966H63.7978V21.0574H63.9581ZM56.7007 23.4338V21.9803C56.7007 21.0832 57.4599 20.3536 58.3934 20.3536H62.2353V23.6005H58.3778H56.874C56.7784 23.6004 56.7007 23.5256 56.7007 23.4338ZM56.5535 30.2698L58.3276 25.1027H60.1804L66.512 40.014C66.3851 40.0106 66.2587 40.005 66.1312 40.005C63.3685 40.005 60.7832 40.8763 58.6768 42.3576L56.5535 30.2698ZM66.1314 41.5066C69.096 41.5066 71.8839 42.618 73.9812 44.6356C74.1199 44.7692 74.309 44.9278 74.5125 45.0969C69.1795 45.4539 64.7956 47.6825 61.9685 49.5772C59.2812 51.3784 57.5224 53.1661 56.9029 53.837H45.9499C44.3943 53.837 43.086 52.7991 42.7318 51.4044H48.5973L48.591 51.397L55.0412 51.3967L55.1324 50.7464C55.8728 45.4789 60.6012 41.5066 66.1314 41.5066ZM53.9696 48.7971C53.8612 49.1565 53.7685 49.5224 53.6943 49.8953L47.3434 49.8956C47.059 49.5385 46.7929 49.1719 46.5445 48.7973L53.9696 48.7971ZM45.4232 49.8956L42.6373 49.8957V46.2633C42.6373 42.0304 38.4789 38.5865 33.3674 38.5865H30.4157C27.5567 38.5865 24.9092 39.3416 22.7446 40.6193C23.1973 38.1394 24.347 36.2168 25.0467 35.232H43.4537C42.6956 37.4688 41.9832 41.0685 43.1437 45.1096C43.6331 46.8138 44.3978 48.4178 45.4232 49.8956ZM25.8249 30.4678H41.9076C43.6046 30.4678 44.9853 31.7947 44.9853 33.4256C44.9853 33.5933 44.8432 33.7299 44.6685 33.7299H25.8249C24.8892 33.7299 24.1278 32.9982 24.1278 32.0989C24.1278 31.1996 24.8892 30.4678 25.8249 30.4678ZM23.199 35.2316C22.5632 36.2689 21.8238 37.7478 21.3817 39.537L15.427 35.2316H21.566H23.199Z" fill="#3D3D56"/>
<path d="M18.6098 24.2266H14.1279V25.7282H18.6098V24.2266Z" fill="#3D3D56"/>
<path d="M46.6305 58.5684H43.9238V60.07H46.6305V58.5684Z" fill="#F48342"/>
<path d="M10.8755 58.5684H8.40161V60.07H10.8755V58.5684Z" fill="#F48342"/>
</svg>
