<svg width="80" height="70" viewBox="0 0 80 70" fill="none" xmlns="http://www.w3.org/2000/svg">
<path d="M52.6836 27.418V30.5931H13.4387V27.418C13.4387 27.2943 13.5117 27.1119 13.7726 26.8795C14.0277 26.6523 14.4039 26.4323 14.8544 26.2395C15.759 25.8522 16.8379 25.6262 17.5225 25.6262H52.2164C52.5607 25.6262 52.6886 25.6847 52.7263 25.7108C52.7268 25.7111 52.7273 25.7115 52.728 25.7119C52.738 25.7184 52.7623 25.7341 52.7758 25.8419C52.793 25.9795 52.7793 26.1663 52.7496 26.4548C52.7473 26.4771 52.7449 26.4998 52.7425 26.523C52.7158 26.7792 52.6836 27.0886 52.6836 27.418Z" stroke="#F48342"/>
<path d="M9.65772 26.3216L9.65944 26.8199H10.1577H46.2449H46.7449V26.3199V25.0309C46.7449 24.4651 46.7109 24.0902 46.6623 23.838L46.5841 23.4326H46.1713H11.9715H11.9618L11.952 23.433C11.7289 23.4417 11.4911 23.5218 11.2886 23.6097C11.075 23.7024 10.8525 23.8252 10.6473 23.9587C10.4426 24.0919 10.2435 24.2431 10.0806 24.3967C9.93401 24.5349 9.75721 24.7291 9.68041 24.9538L9.65326 25.0333L9.65355 25.1172L9.65772 26.3216ZM48.3265 29.3995H8.08163C7.13531 29.3995 6.5 28.7528 6.5 28.1097V25.0309C6.5 24.0563 7.1949 23.0169 8.3064 22.1898C9.40591 21.3716 10.7966 20.853 11.9715 20.853H46.6654C47.448 20.853 48.2377 21.0394 48.8325 21.6044C49.4226 22.1648 49.9082 23.1812 49.9082 25.0309V28.1097C49.9082 28.7528 49.2729 29.3995 48.3265 29.3995Z" stroke="#3D3D56"/>
<path d="M21.3717 30.194L21.3717 30.194L41.3077 52.6454C41.3079 52.6455 41.308 52.6457 41.3082 52.6459C41.5379 52.9057 41.5994 53.1905 41.5466 53.4455C41.4928 53.7052 41.3089 53.9827 40.9555 54.186C40.6769 54.3454 40.3466 54.4268 40.0119 54.4268C39.4861 54.4268 39.003 54.2276 38.7138 53.9032C38.7137 53.9031 38.7136 53.903 38.7135 53.9029L18.7779 31.4509C18.7778 31.4508 18.7778 31.4508 18.7777 31.4507C18.548 31.1915 18.4864 30.9069 18.5392 30.652C18.593 30.3924 18.7769 30.1148 19.1305 29.9115C19.8696 29.4876 20.8866 29.6475 21.3717 30.194Z" stroke="#3D3D56"/>
<path d="M37.6201 30.194L37.6202 30.194C38.1052 29.6476 39.1222 29.4874 39.8629 29.9117C40.2163 30.115 40.4 30.3924 40.4537 30.6518C40.5064 30.9066 40.4446 31.1911 40.2142 31.4505L40.2142 31.4506L20.2802 53.9029C20.2801 53.9031 20.28 53.9032 20.2799 53.9033C19.9908 54.2274 19.5066 54.4268 18.9806 54.4268C18.6463 54.4268 18.317 54.3456 18.0364 54.1857C17.6833 53.9824 17.4998 53.7051 17.4461 53.4457C17.3934 53.1908 17.4552 52.9058 17.6858 52.6457L37.6201 30.194Z" stroke="#3D3D56"/>
<path d="M59.5501 31.8179H60.0501V31.3179V17.9406C60.0501 16.5849 60.9323 15.2297 62.2805 14.1868C63.6222 13.1489 65.3284 12.5 66.7944 12.5H68.4295C69.3442 12.5 69.9787 13.1443 69.9787 13.8109V39.1647C69.9787 39.8323 69.3445 40.4756 68.4295 40.4756H45.2063C44.2914 40.4756 43.6572 39.8323 43.6572 39.1647V37.2573C43.6572 35.9016 44.5394 34.5467 45.8875 33.5041C47.2293 32.4665 48.9355 31.8179 50.4015 31.8179H59.5501ZM46.7554 37.3538V37.8538H47.2554H66.3804H66.8804V37.3538V15.6689V15.0559L66.28 15.179C65.5778 15.323 64.8226 15.7331 64.2455 16.205C63.954 16.4434 63.6905 16.7116 63.4956 16.9906C63.307 17.2607 63.1483 17.5903 63.1483 17.9406V33.1288C63.1483 33.7954 62.5139 34.4397 61.5992 34.4397H50.4015C49.63 34.4397 48.739 34.8603 48.0683 35.3543C47.7241 35.6079 47.4095 35.9012 47.1757 36.2076C46.9512 36.5017 46.7554 36.8681 46.7554 37.2573V37.3538Z" stroke="#3D3D56"/>
<path d="M68.2929 55.4999C67.7855 55.4999 67.3455 55.3475 67.0441 55.1255C66.7425 54.9033 66.6072 54.6374 66.6072 54.3903V41.512C66.6072 41.2649 66.7425 40.999 67.0441 40.7768C67.3455 40.5548 67.7855 40.4023 68.2929 40.4023C68.8003 40.4023 69.2403 40.5548 69.5416 40.7768C69.8433 40.999 69.9786 41.2649 69.9786 41.512V54.3903C69.9786 54.6374 69.8433 54.9033 69.5416 55.1255C69.2403 55.3475 68.8003 55.4999 68.2929 55.4999Z" stroke="#3D3D56"/>
<path d="M48.6215 55.4999C48.1141 55.4999 47.6741 55.3475 47.3727 55.1255C47.0711 54.9033 46.9358 54.6374 46.9358 54.3903V41.512C46.9358 41.2649 47.0711 40.999 47.3727 40.7768C47.6741 40.5548 48.1141 40.4023 48.6215 40.4023C49.1289 40.4023 49.5689 40.5548 49.8703 40.7768C50.1719 40.999 50.3072 41.2649 50.3072 41.512V54.3903C50.3072 54.6374 50.1719 54.9033 49.8703 55.1255C49.5689 55.3475 49.1289 55.4999 48.6215 55.4999Z" stroke="#3D3D56"/>
</svg>
