<?xml version="1.0" standalone="no"?>
<!DOCTYPE svg PUBLIC "-//W3C//DTD SVG 20010904//EN"
 "http://www.w3.org/TR/2001/REC-SVG-20010904/DTD/svg10.dtd">
<svg version="1.0" xmlns="http://www.w3.org/2000/svg"
 width="500.000000pt" height="500.000000pt" viewBox="0 0 500.000000 500.000000"
 preserveAspectRatio="xMidYMid meet">
<metadata>
Created by potrace 1.14, written by Peter Selinger 2001-2017
</metadata>
<g transform="translate(0.000000,500.000000) scale(0.100000,-0.100000)"
fill="#000000" stroke="none">
<path d="M2265 4903 c-327 -40 -567 -109 -830 -238 -615 -301 -1079 -862
-1260 -1522 -66 -241 -80 -347 -80 -643 0 -290 12 -388 74 -626 194 -738 746
-1351 1467 -1630 320 -123 703 -180 1034 -154 605 48 1129 289 1548 712 128
129 195 211 291 354 208 309 339 662 392 1054 17 122 17 458 0 580 -73 542
-296 1006 -666 1389 -381 393 -882 645 -1428 716 -108 14 -454 19 -542 8z
m1434 -778 c126 -30 270 -127 342 -231 38 -55 37 -73 -7 -118 -76 -78 -122
-76 -213 7 -110 101 -188 125 -230 71 -12 -15 -21 -33 -21 -41 0 -25 47 -107
128 -221 91 -127 116 -188 115 -280 -1 -124 -96 -255 -221 -303 -44 -17 -78
-21 -147 -21 -160 1 -316 67 -440 187 -101 97 -128 175 -83 237 21 30 102 88
123 88 6 0 30 -27 55 -61 124 -170 289 -248 336 -157 9 18 13 41 9 57 -3 14
-48 89 -100 166 -110 164 -130 216 -123 318 15 229 224 361 477 302z m-2380
-249 c181 -49 295 -169 348 -366 13 -48 18 -104 17 -215 0 -138 -2 -156 -27
-228 -34 -98 -78 -167 -148 -233 -79 -74 -149 -104 -244 -104 -68 0 -79 3
-101 25 -32 32 -62 100 -70 159 l-7 46 49 0 c56 0 119 26 151 61 12 13 32 47
45 74 21 45 23 65 23 190 -1 123 -3 147 -24 198 -26 66 -77 122 -130 144 -33
14 -156 21 -168 10 -2 -3 0 -117 6 -254 6 -136 15 -374 21 -528 6 -154 15
-389 21 -523 7 -133 9 -246 5 -249 -8 -9 -188 -32 -247 -33 -26 0 -51 6 -56
13 -6 6 -15 147 -22 312 -6 165 -16 419 -21 565 -20 523 -30 756 -36 831 l-6
75 53 12 c62 13 184 31 249 36 80 7 264 -4 319 -18z m1135 -213 c58 -21 137
-89 171 -147 13 -22 51 -133 84 -245 32 -112 65 -208 73 -212 18 -12 65 -11
89 1 16 9 21 7 29 -15 17 -44 11 -107 -13 -149 -49 -86 -206 -133 -294 -87
-23 11 -44 25 -48 31 -3 5 -22 -11 -41 -36 -50 -65 -81 -91 -144 -122 -120
-59 -284 -24 -354 75 -40 57 -54 97 -55 156 -2 123 101 232 342 362 77 41 87
50 81 69 -38 121 -198 126 -339 12 -52 -42 -78 -56 -108 -56 -31 0 -73 33 -93
72 -15 29 -15 31 13 61 120 128 246 210 378 244 63 16 165 10 229 -14z m1676
-639 c133 -39 211 -148 209 -289 -1 -74 -19 -108 -69 -127 -54 -20 -175 -23
-301 -6 -49 6 -91 9 -94 7 -10 -11 24 -111 46 -135 52 -56 94 -69 222 -69 128
0 130 -1 101 -58 -51 -102 -145 -134 -294 -103 -101 22 -170 57 -224 117 -60
67 -80 129 -79 249 2 180 81 322 216 392 80 41 177 49 267 22z m-660 -194 c30
-42 36 -99 16 -138 -9 -18 -20 -32 -24 -32 -4 -1 -18 -9 -30 -20 l-24 -20 41
-46 c75 -86 91 -205 41 -309 -30 -64 -119 -153 -193 -195 -31 -17 -57 -38 -57
-45 0 -63 47 -60 190 15 233 123 279 138 368 119 73 -15 140 -79 172 -164 52
-142 2 -296 -144 -440 -113 -112 -239 -181 -373 -206 -156 -29 -293 45 -293
158 0 29 12 65 39 117 l39 76 -39 0 c-67 0 -169 58 -169 96 0 7 15 44 34 81
58 118 59 113 -26 113 -124 0 -202 51 -256 168 -59 128 -14 277 120 397 59 53
126 89 270 145 114 45 166 74 222 125 21 19 42 35 46 35 5 0 18 -14 30 -30z
m-818 -307 c-1 -76 -5 -152 -7 -169 -11 -67 -77 -116 -174 -129 l-54 -7 22 33
c26 41 93 169 87 169 -2 0 -22 -28 -44 -62 -23 -35 -52 -78 -65 -96 l-25 -33
-17 71 c-26 105 -18 130 68 214 58 58 184 146 207 146 3 0 4 -62 2 -137z
m-476 -258 c83 -158 79 -217 -20 -285 l-42 -28 2 96 c3 95 3 95 -6 32 -5 -36
-12 -80 -15 -98 l-6 -32 -39 45 c-22 26 -43 57 -46 71 -9 36 3 108 26 162 21
47 82 153 86 149 1 -1 28 -51 60 -112z m-438 -7 c56 -12 62 -21 62 -100 0 -36
-6 -54 -26 -77 -24 -29 -30 -31 -93 -31 -123 0 -211 -42 -211 -101 0 -55 48
-73 287 -112 112 -18 172 -47 228 -109 56 -62 79 -136 73 -232 -9 -130 -89
-232 -239 -304 -104 -49 -170 -65 -274 -65 -144 0 -195 33 -195 128 0 29 5 67
11 84 10 27 15 31 33 26 11 -4 61 -9 110 -12 157 -10 256 30 256 102 0 24 -7
39 -26 54 -26 20 -44 25 -239 61 -130 25 -200 61 -251 130 -72 96 -84 237 -28
339 87 161 332 264 522 219z m960 -286 c100 -39 162 -104 181 -194 16 -72 -2
-135 -85 -294 -41 -78 -74 -148 -74 -157 0 -9 12 -24 28 -34 15 -9 29 -18 31
-20 6 -4 -31 -56 -53 -75 -33 -28 -81 -33 -131 -14 -51 20 -105 76 -105 110 0
23 -1 24 -83 19 -91 -6 -125 5 -180 56 -44 40 -57 74 -57 144 0 82 36 144 102
176 59 28 182 29 293 1 75 -19 81 -20 92 -3 19 26 16 77 -8 107 -30 39 -71 56
-147 63 -88 7 -112 22 -112 71 0 68 12 73 150 68 74 -3 121 -10 158 -24z"/>
<path d="M2332 3130 c-34 -22 -71 -54 -82 -72 -56 -93 23 -189 130 -157 57 17
90 50 90 90 0 54 -43 179 -61 179 -9 0 -44 -18 -77 -40z"/>
<path d="M3984 2896 c-36 -16 -73 -70 -81 -120 l-5 -34 58 -8 c33 -4 81 -8
108 -8 46 -1 50 1 57 28 11 41 -9 114 -35 131 -34 22 -69 26 -102 11z"/>
<path d="M3074 2496 c-95 -42 -100 -165 -10 -261 59 -62 150 -64 200 -4 46 54
32 138 -35 214 -32 36 -83 65 -111 65 -7 -1 -27 -7 -44 -14z"/>
<path d="M3628 1865 c-70 -26 -200 -98 -234 -130 -22 -21 -34 -42 -34 -58 0
-74 50 -113 136 -104 128 13 294 144 294 232 0 9 -13 30 -29 46 -33 33 -71 37
-133 14z"/>
<path d="M2414 1566 c-54 -46 -30 -124 42 -142 46 -12 70 3 103 65 17 32 31
63 31 69 0 15 -57 32 -106 32 -31 0 -51 -7 -70 -24z"/>
</g>
</svg>
