<svg width="50" height="40" viewBox="0 0 50 40" fill="none" xmlns="http://www.w3.org/2000/svg">
    <path fill-rule="evenodd" clip-rule="evenodd" d="M12.5 36.9231C14.2259 36.9231 15.625 35.5455 15.625 33.8462C15.625 32.1468 14.2259 30.7692 12.5 30.7692C10.7741 30.7692 9.37501 32.1468 9.37501 33.8462C9.37501 35.5455 10.7741 36.9231 12.5 36.9231ZM12.5 40C15.9518 40 18.75 37.2448 18.75 33.8462C18.75 30.4475 15.9518 27.6923 12.5 27.6923C9.04823 27.6923 6.25001 30.4475 6.25001 33.8462C6.25001 37.2448 9.04823 40 12.5 40Z" fill="#3D3D56"/>
    <path fill-rule="evenodd" clip-rule="evenodd" d="M37.5 36.9231C39.2259 36.9231 40.625 35.5455 40.625 33.8462C40.625 32.1468 39.2259 30.7692 37.5 30.7692C35.7741 30.7692 34.375 32.1468 34.375 33.8462C34.375 35.5455 35.7741 36.9231 37.5 36.9231ZM37.5 40C40.9518 40 43.75 37.2448 43.75 33.8462C43.75 30.4475 40.9518 27.6923 37.5 27.6923C34.0482 27.6923 31.25 30.4475 31.25 33.8462C31.25 37.2448 34.0482 40 37.5 40Z" fill="#3D3D56"/>
    <path fill-rule="evenodd" clip-rule="evenodd" d="M0.360155 0.555945C0.657005 0.203765 1.09769 0 1.56251 0H48.4375C48.9023 0 49.343 0.203765 49.6398 0.555945C49.9367 0.908125 50.0589 1.37215 49.9732 1.82198L45.2857 26.4374C45.1472 27.165 44.5019 27.6923 43.75 27.6923H6.25001C5.49811 27.6923 4.85284 27.165 4.71427 26.4374L0.0267751 1.82198C-0.0588857 1.37215 0.0633045 0.908125 0.360155 0.555945ZM3.44521 3.07692L7.54677 24.6154H42.4532L46.5548 3.07692H3.44521Z" fill="#3D3D56"/>
</svg>
