<svg width="256" height="219" viewBox="0 0 256 219" fill="none" xmlns="http://www.w3.org/2000/svg">
<path d="M124.033 35.3953C124.033 28.3296 117.997 22.5806 110.578 22.5806C103.162 22.5806 97.1284 28.3291 97.1284 35.3953C97.1284 42.4616 103.162 48.2101 110.578 48.2101C117.997 48.2101 124.033 42.4616 124.033 35.3953ZM102.129 35.3953C102.129 30.9555 105.919 27.3428 110.579 27.3428C115.24 27.3428 119.033 30.955 119.033 35.3953C119.033 39.8357 115.241 43.4478 110.579 43.4478C105.919 43.4478 102.129 39.8357 102.129 35.3953Z" fill="#F48342" fill-opacity="0.1"/>
<path d="M112.45 72.4219C114.763 69.9336 135.047 47.7643 135.047 35.6582C135.047 22.8101 124.07 12.3569 110.578 12.3569C97.0888 12.3569 86.1138 22.8096 86.1138 35.6582C86.1138 47.7639 106.394 69.9336 108.706 72.4214L110.578 74.4354L112.45 72.4219ZM91.1143 35.6587C91.1143 25.4365 99.8458 17.1197 110.579 17.1197C121.314 17.1197 130.048 25.436 130.048 35.6587C130.048 43.5807 117.362 59.539 110.579 67.1982C103.796 59.5404 91.1143 43.5864 91.1143 35.6587Z" fill="#F48342" fill-opacity="0.1"/>
<path d="M46.9456 146.695H22.8486V151.457H46.9456V146.695Z" fill="#F48342" fill-opacity="0.1"/>
<path d="M17.023 146.695H9.146V151.457H17.023V146.695Z" fill="#F48342" fill-opacity="0.1"/>
<path d="M46.9449 159.705H32.4009V164.467H46.9449V159.705Z" fill="#F48342" fill-opacity="0.1"/>
<path d="M96.4878 111.173H83.6763V115.935H96.4878V111.173Z" fill="#3D3D56" fill-opacity="0.1"/>
<path d="M21.4077 62.8943V108.234H26.8847H41.0492L67.4527 127.154C67.3737 127.816 67.3087 128.486 67.2617 129.167C59.7207 135.409 55.0557 143.976 55.0557 153.419V163.41H64.1302C64.8752 171.181 69.2267 177.969 75.5737 182.246H40.5512V187.008H133.551V182.246H106.992C110.164 180.109 112.836 177.347 114.811 174.145H131.606L139.617 170.207C141.825 171.352 144.355 172.003 147.04 172.003H183.234L184.415 172.001L185.165 171.134C185.208 171.084 186.05 170.127 187.607 168.602C189.581 174.277 193.565 179.062 198.7 182.246H156.551V187.008H246.854V182.246H237.615H228.377C235.841 177.607 240.788 169.588 240.788 160.485C240.788 154.718 238.75 149.14 235.099 144.621C237.709 144.303 240.395 144.127 243.151 144.127C245.246 144.127 245.94 142.767 246.103 142.35C246.937 140.213 244.957 138.587 241.96 136.125C241.285 135.571 240.648 135.048 240.279 134.694C234.261 128.958 226.685 125.258 218.465 123.931L197.976 76.1095H204.152V73.877H204.665C209.064 73.877 212.642 70.4691 212.642 66.2802V66.1169C212.642 61.928 209.064 58.5197 204.665 58.5197H204.152V56.2871H186.858C181.115 56.2871 176.442 60.7379 176.442 66.2083V70.8182C176.442 70.9968 176.452 71.1725 176.47 71.3463H173.423L162.788 61.2165H150.297V65.9788H160.717L171.352 76.1086H181.384L175.834 92.1264L183.328 134.405C179.644 137.831 176.632 141.924 174.519 146.494H146.137C144.79 143.865 143.7 141.128 142.879 138.295C139.19 125.565 142.008 114.321 144.405 108.054C147.014 107.429 148.952 105.182 148.952 102.506C148.952 94.708 142.291 88.3638 134.104 88.3638H82.6397C76.8882 88.3638 72.2087 92.8203 72.2087 98.2988C72.2087 100.195 72.7792 101.962 73.7512 103.472H69.0112V62.8943H21.4077ZM26.4077 103.472V67.6565H64.0112V103.472H26.8847H26.4077ZM60.0557 153.418C60.0557 136.997 76.7772 123.636 97.3307 123.636H106.776C120.376 123.636 131.44 132.422 131.44 143.221V154.741V157.122V158.648H118.445C117.179 145.435 105.482 135.05 91.2872 135.05C77.0897 135.05 65.3912 145.435 64.1252 158.648H60.0562L60.0557 153.418ZM69.1552 158.648C70.4022 148.066 79.8497 139.812 91.2867 139.812C102.722 139.812 112.167 148.066 113.414 158.648H69.1552ZM98.6587 163.41C97.6137 166.336 94.7072 168.449 91.2867 168.449C87.8642 168.449 84.9562 166.335 83.9107 163.41H98.6587ZM91.2817 182.246C79.8467 182.246 70.4012 173.992 69.1547 163.41H78.7382C79.9047 168.991 85.0867 173.211 91.2867 173.211C97.4842 173.211 102.665 168.991 103.831 163.41H113.414C113.167 165.508 112.599 167.514 111.755 169.383H102.894V174.145H108.771C104.689 179.073 98.3687 182.246 91.2817 182.246ZM130.392 169.383H117.102C117.783 167.48 118.239 165.481 118.438 163.41H132.905C133.54 164.702 134.363 165.892 135.34 166.951L130.392 169.383ZM235.789 160.484C235.789 172.181 225.796 181.696 213.513 181.696C202.991 181.696 193.848 174.534 191.712 164.842C194.19 162.712 197.327 160.243 201.044 157.768C200.834 158.642 200.72 159.55 200.72 160.483C200.72 167.202 206.459 172.668 213.513 172.668C220.567 172.668 226.305 167.202 226.305 160.483C226.305 155.199 222.754 150.691 217.806 149.007C221.421 147.609 225.279 146.421 229.356 145.569C233.458 149.534 235.789 154.903 235.789 160.484ZM207.91 155.337L211.292 161.575L215.734 159.391L212.353 153.152C212.733 153.098 213.118 153.061 213.513 153.061C217.81 153.061 221.305 156.391 221.305 160.483C221.305 164.576 217.81 167.905 213.513 167.905C209.216 167.905 205.72 164.576 205.72 160.483C205.72 158.485 206.557 156.673 207.91 155.337ZM204.666 63.2819C206.307 63.2819 207.642 64.5534 207.642 66.1169V66.2802C207.642 67.8432 206.307 69.1147 204.666 69.1147H204.153V63.2819H204.666ZM181.442 70.8187V66.2088C181.442 63.3638 183.872 61.0498 186.859 61.0498H199.153V71.3473H186.809H181.997C181.691 71.3468 181.442 71.1096 181.442 70.8187ZM180.971 92.4984L186.648 76.1114H192.577L212.838 123.402C212.432 123.391 212.028 123.373 211.62 123.373C202.779 123.373 194.506 126.136 187.766 130.834L180.971 92.4984ZM211.62 128.135C221.107 128.135 230.028 131.66 236.74 138.058C237.184 138.482 237.789 138.985 238.44 139.521C221.374 140.654 207.346 147.722 198.299 153.731C189.7 159.443 184.072 165.112 182.089 167.24H147.04C142.062 167.24 137.875 163.948 136.742 159.525H155.511L155.491 159.502L176.132 159.501L176.424 157.438C178.793 140.733 193.924 128.135 211.62 128.135ZM172.703 151.257C172.356 152.396 172.059 153.557 171.822 154.739L151.499 154.74C150.589 153.608 149.737 152.445 148.942 151.257L172.703 151.257ZM145.354 154.74L136.439 154.741V143.221C136.439 129.796 123.132 118.874 106.776 118.874H97.3302C88.1812 118.874 79.7092 121.269 72.7827 125.321C74.2312 117.456 77.9102 111.359 80.1492 108.236H139.052C136.626 115.33 134.346 126.746 138.06 139.562C139.626 144.967 142.073 150.054 145.354 154.74ZM82.6397 93.1265H134.104C139.535 93.1265 143.953 97.3344 143.953 102.507C143.953 103.039 143.498 103.472 142.939 103.472H82.6397C79.6452 103.472 77.2087 101.151 77.2087 98.2993C77.2087 95.4472 79.6452 93.1265 82.6397 93.1265ZM74.2367 108.234C72.2022 111.524 69.8362 116.214 68.4212 121.889L49.3662 108.234H69.0112H74.2367Z" fill="#3D3D56" fill-opacity="0.1"/>
<path d="M59.5515 73.3328H45.2095V78.095H59.5515V73.3328Z" fill="#3D3D56" fill-opacity="0.1"/>
<path d="M149.218 182.246H140.556V187.008H149.218V182.246Z" fill="#F48342" fill-opacity="0.1"/>
<path d="M34.8018 182.246H26.8853V187.008H34.8018V182.246Z" fill="#F48342" fill-opacity="0.1"/>
</svg>
