<svg width="250" height="201" viewBox="0 0 250 201" fill="none" xmlns="http://www.w3.org/2000/svg">
	<path fill-rule="evenodd" clip-rule="evenodd" d="M52 127.5C52 131.366 55.134 134.5 59 134.5H205C208.866 134.5 212 131.366 212 127.5C212 123.634 208.866 120.5 205 120.5H199C195.134 120.5 192 117.366 192 113.5C192 109.634 195.134 106.5 199 106.5H218C221.866 106.5 225 103.366 225 99.5C225 95.634 221.866 92.5 218 92.5H196C199.866 92.5 203 89.366 203 85.5C203 81.634 199.866 78.5 196 78.5H132C135.866 78.5 139 75.366 139 71.5C139 67.634 135.866 64.5 132 64.5H75C71.134 64.5 68 67.634 68 71.5C68 75.366 71.134 78.5 75 78.5H35C31.134 78.5 28 81.634 28 85.5C28 89.366 31.134 92.5 35 92.5H60C63.866 92.5 67 95.634 67 99.5C67 103.366 63.866 106.5 60 106.5H20C16.134 106.5 13 109.634 13 113.5C13 117.366 16.134 120.5 20 120.5H59C55.134 120.5 52 123.634 52 127.5ZM222 134.5C225.866 134.5 229 131.366 229 127.5C229 123.634 225.866 120.5 222 120.5C218.134 120.5 215 123.634 215 127.5C215 131.366 218.134 134.5 222 134.5Z" fill="#FFE6D8"/>
	<path fill-rule="evenodd" clip-rule="evenodd" d="M152.873 142.619C155.911 140.664 158.612 138.225 160.37 136.256L152.873 142.619ZM163.205 132.983C164.659 131.203 165.966 129.341 167.125 127.414C169.675 123.175 171.513 118.622 172.637 113.927C173.773 109.179 174.178 104.287 173.849 99.4301C173.562 95.1922 172.716 90.9814 171.31 86.9173C169.915 82.8853 167.968 78.9977 165.467 75.3714C163.977 73.2105 162.29 71.1424 160.407 69.1917C157.641 66.3278 154.607 63.8795 151.384 61.8481C147.921 59.6655 144.239 57.9643 140.435 56.7464C135.671 55.2211 130.715 54.4539 125.759 54.4483C121.903 54.4439 118.046 54.9007 114.279 55.8203C110.037 56.8555 105.909 58.4774 102.022 60.6883C98.6054 62.6319 95.375 65.0306 92.418 67.8861C88.7019 71.4747 85.6918 75.52 83.3904 79.8493C81.1373 84.0878 79.5635 88.5986 78.6715 93.2197C77.7525 97.9806 77.5573 102.858 78.0887 107.676C78.7773 113.921 80.6865 120.064 83.8223 125.72C85.8288 129.339 88.3375 132.759 91.35 135.879C96.1324 140.831 101.716 144.541 107.696 147.001C114.968 149.992 122.827 151.134 130.545 150.413C137.023 149.808 143.401 147.891 149.251 144.654" fill="white"/>
	<path d="M152.197 141.568C151.616 141.942 151.448 142.715 151.822 143.296C152.195 143.876 152.969 144.044 153.549 143.67L152.197 141.568ZM161.302 137.088C161.762 136.573 161.717 135.783 161.202 135.323C160.687 134.863 159.897 134.908 159.437 135.423L161.302 137.088ZM167.125 127.414L166.054 126.769L167.125 127.414ZM172.637 113.927L173.852 114.218L172.637 113.927ZM173.849 99.4301L175.096 99.3457L173.849 99.4301ZM171.31 86.9173L170.129 87.326L171.31 86.9173ZM165.467 75.3714L164.438 76.081L165.467 75.3714ZM160.407 69.1917L159.507 70.0601L160.407 69.1917ZM151.384 61.8481L152.051 60.7906L151.384 61.8481ZM140.435 56.7464L140.054 57.9368L140.435 56.7464ZM125.759 54.4483L125.758 55.6983L125.759 54.4483ZM114.279 55.8203L114.575 57.0346L114.279 55.8203ZM102.022 60.6883L101.404 59.6018L102.022 60.6883ZM92.418 67.8861L93.2863 68.7853L92.418 67.8861ZM83.3904 79.8493L82.2867 79.2625L83.3904 79.8493ZM78.6715 93.2197L77.4442 92.9828L78.6715 93.2197ZM78.0887 107.676L76.8462 107.813L78.0887 107.676ZM83.8223 125.72L84.9155 125.114L83.8223 125.72ZM91.35 135.879L92.2492 135.011L91.35 135.879ZM107.696 147.001L107.22 148.157L107.696 147.001ZM130.545 150.413L130.429 149.169L130.545 150.413ZM149.856 145.747C150.46 145.413 150.679 144.652 150.345 144.048C150.01 143.444 149.25 143.226 148.646 143.56L149.856 145.747ZM153.549 143.67C156.69 141.65 159.476 139.135 161.302 137.088L159.437 135.423C157.749 137.315 155.133 139.679 152.197 141.568L153.549 143.67ZM164.174 133.774C165.665 131.947 167.006 130.036 168.196 128.058L166.054 126.769C164.925 128.646 163.653 130.459 162.237 132.193L164.174 133.774ZM168.196 128.058C170.813 123.708 172.7 119.035 173.852 114.218L171.421 113.636C170.327 118.209 168.537 122.643 166.054 126.769L168.196 128.058ZM173.852 114.218C175.018 109.347 175.433 104.328 175.096 99.3457L172.602 99.5146C172.922 104.246 172.527 109.012 171.421 113.636L173.852 114.218ZM175.096 99.3457C174.802 94.9983 173.934 90.6784 172.491 86.5085L170.129 87.326C171.499 91.2843 172.322 95.386 172.602 99.5146L175.096 99.3457ZM172.491 86.5085C171.06 82.3714 169.062 78.3824 166.496 74.6617L164.438 76.081C166.874 79.613 168.77 83.3992 170.129 87.326L172.491 86.5085ZM166.496 74.6617C164.967 72.4447 163.237 70.3235 161.306 68.3234L159.507 70.0601C161.343 71.9613 162.987 73.9763 164.438 76.081L166.496 74.6617ZM161.306 68.3234C158.47 65.3868 155.358 62.875 152.051 60.7906L150.718 62.9056C153.857 64.8839 156.812 67.2689 159.507 70.0601L161.306 68.3234ZM152.051 60.7906C148.497 58.551 144.719 56.8055 140.816 55.5559L140.054 57.9368C143.759 59.1231 147.345 60.7799 150.718 62.9056L152.051 60.7906ZM140.816 55.5559C135.928 53.991 130.844 53.204 125.76 53.1983L125.758 55.6983C130.586 55.7037 135.413 56.4512 140.054 57.9368L140.816 55.5559ZM125.76 53.1983C121.805 53.1938 117.848 53.6624 113.982 54.6059L114.575 57.0346C118.244 56.139 122.001 55.6941 125.758 55.6983L125.76 53.1983ZM113.982 54.6059C109.63 55.6682 105.394 57.3326 101.404 59.6018L102.64 61.7749C106.425 59.6222 110.444 58.0429 114.575 57.0346L113.982 54.6059ZM101.404 59.6018C97.8972 61.5966 94.5826 64.0581 91.5496 66.987L93.2863 68.7853C96.1674 66.003 99.3136 63.6671 102.64 61.7749L101.404 59.6018ZM91.5496 66.987C87.738 70.6678 84.6489 74.8188 82.2867 79.2625L84.4942 80.436C86.7347 76.2211 89.6658 72.2816 93.2863 68.7853L91.5496 66.987ZM82.2867 79.2625C79.9742 83.6128 78.3593 88.2417 77.4442 92.9828L79.8988 93.4566C80.7676 88.9556 82.3004 84.5629 84.4942 80.436L82.2867 79.2625ZM77.4442 92.9828C76.5014 97.8672 76.3011 102.871 76.8462 107.813L79.3311 107.539C78.8135 102.846 79.0037 98.094 79.8988 93.4566L77.4442 92.9828ZM76.8462 107.813C77.5526 114.219 79.5113 120.522 82.7291 126.326L84.9155 125.114C81.8617 119.606 80.002 113.622 79.3311 107.539L76.8462 107.813ZM82.7291 126.326C84.788 130.04 87.3618 133.548 90.4508 136.747L92.2492 135.011C89.3132 131.97 86.8695 128.639 84.9155 125.114L82.7291 126.326ZM90.4508 136.747C95.3552 141.826 101.084 145.633 107.22 148.157L108.171 145.845C102.348 143.449 96.9095 139.837 92.2492 135.011L90.4508 136.747ZM107.22 148.157C114.682 151.226 122.744 152.397 130.661 151.658L130.429 149.169C122.91 149.871 115.254 148.758 108.171 145.845L107.22 148.157ZM130.661 151.658C137.307 151.037 143.852 149.07 149.856 145.747L148.646 143.56C142.95 146.712 136.739 148.579 130.429 149.169L130.661 151.658Z" fill="#F48342"/>
	<path d="M172.5 45.5V51.5" stroke="#FFDFCC" stroke-width="2.5" stroke-linecap="round" stroke-linejoin="round"/>
	<path d="M172.5 59.5V65.5" stroke="#FFDFCC" stroke-width="2.5" stroke-linecap="round" stroke-linejoin="round"/>
	<path d="M162.5 55.5H168.5" stroke="#FFDFCC" stroke-width="2.5" stroke-linecap="round" stroke-linejoin="round"/>
	<path d="M176.5 55.5H182.5" stroke="#FFDFCC" stroke-width="2.5" stroke-linecap="round" stroke-linejoin="round"/>
	<path d="M89.5 148.5V152.5" stroke="#FFDFCC" stroke-width="2.5" stroke-linecap="round" stroke-linejoin="round"/>
	<path d="M89.5 160.5V164.5" stroke="#FFDFCC" stroke-width="2.5" stroke-linecap="round" stroke-linejoin="round"/>
	<path d="M81.5 156.5H85.5" stroke="#FFDFCC" stroke-width="2.5" stroke-linecap="round" stroke-linejoin="round"/>
	<path d="M93.5 156.5H97.5" stroke="#FFDFCC" stroke-width="2.5" stroke-linecap="round" stroke-linejoin="round"/>
	<path fill-rule="evenodd" clip-rule="evenodd" d="M111.182 63.201C109.144 63.9658 107.152 64.8953 105.228 65.9896C102.238 67.6902 99.4118 69.7891 96.8244 72.2877C95.7638 73.312 94.7689 74.3787 93.8398 75.4827M90.9649 79.3266C90.2261 80.443 89.5462 81.5874 88.9253 82.7555C88.4667 83.6181 88.0403 84.4937 87.6461 85.3804" fill="white"/>
	<path d="M111.622 64.3713C112.268 64.1288 112.595 63.4083 112.353 62.7619C112.11 62.1155 111.39 61.7881 110.743 62.0306L111.622 64.3713ZM105.228 65.9896L105.846 67.0762L105.228 65.9896ZM96.8244 72.2877L95.9561 71.3886L96.8244 72.2877ZM92.8834 74.6779C92.4389 75.2061 92.5067 75.9946 93.0349 76.4391C93.5631 76.8836 94.3517 76.8158 94.7962 76.2876L92.8834 74.6779ZM92.0073 80.0164C92.3883 79.4407 92.2304 78.6652 91.6547 78.2842C91.079 77.9032 90.3034 78.0611 89.9224 78.6368L92.0073 80.0164ZM88.9253 82.7555L90.029 83.3422L88.9253 82.7555ZM86.5039 84.8725C86.2234 85.5034 86.5074 86.2421 87.1382 86.5226C87.769 86.8031 88.5078 86.519 88.7882 85.8882L86.5039 84.8725ZM110.743 62.0306C108.643 62.8184 106.592 63.7758 104.61 64.9031L105.846 67.0762C107.712 66.0147 109.644 65.1132 111.622 64.3713L110.743 62.0306ZM104.61 64.9031C101.53 66.655 98.6194 68.8166 95.9561 71.3886L97.6927 73.1869C100.204 70.7616 102.947 68.7255 105.846 67.0762L104.61 64.9031ZM95.9561 71.3886C94.8644 72.4427 93.8401 73.541 92.8834 74.6779L94.7962 76.2876C95.6976 75.2164 96.6631 74.1812 97.6927 73.1869L95.9561 71.3886ZM89.9224 78.6368C89.1615 79.7867 88.4612 80.9655 87.8216 82.1687L90.029 83.3422C90.6313 82.2093 91.2907 81.0993 92.0073 80.0164L89.9224 78.6368ZM87.8216 82.1687C87.3492 83.0574 86.9099 83.9592 86.5039 84.8725L88.7882 85.8882C89.1706 85.0282 89.5843 84.1789 90.029 83.3422L87.8216 82.1687Z" fill="#FFDFCC"/>
	<path d="M106.98 101.869C105.524 100.557 103.265 100.657 101.935 102.093C100.604 103.53 100.706 105.757 102.163 107.069L118.971 122.21C121.01 124.046 124.172 123.905 126.035 121.895C126.113 121.809 126.113 121.809 126.188 121.722L150.175 93.2735C151.436 91.7779 151.228 89.5574 149.712 88.3139C148.195 87.0703 145.943 87.2747 144.682 88.7703L122.131 115.516L106.98 101.869Z" fill="#FFE6D8" stroke="#F48342" stroke-width="2.5"/>
</svg>
